<?xml version="1.0" standalone="no"?>
<!DOCTYPE svg PUBLIC "-//W3C//DTD SVG 20010904//EN"
 "http://www.w3.org/TR/2001/REC-SVG-20010904/DTD/svg10.dtd">
<svg version="1.0" xmlns="http://www.w3.org/2000/svg"
 width="512.000000pt" height="512.000000pt" viewBox="0 0 512.000000 512.000000"
 preserveAspectRatio="xMidYMid meet">

<g transform="translate(0.000000,512.000000) scale(0.100000,-0.100000)"
fill="#000000" stroke="none">
<path d="M166 3200 c-35 -11 -65 -37 -80 -70 -6 -15 -13 -121 -16 -265 l-5
-240 -32 -15 c-45 -21 -46 -67 -4 -92 l29 -16 4 -249 c3 -286 7 -300 80 -327
39 -15 149 -16 1143 -14 893 2 1104 6 1123 16 46 26 52 63 52 317 l0 236 25
24 c13 14 29 25 35 25 5 0 10 15 10 34 0 28 -4 35 -22 38 -42 6 -48 38 -48
281 0 183 -3 235 -15 261 -31 65 49 61 -1155 63 -602 1 -1108 -2 -1124 -7z
m784 -271 c56 -12 57 -15 36 -94 -9 -33 -18 -49 -27 -47 -104 26 -178 23 -240
-9 -76 -38 -114 -111 -113 -220 0 -91 32 -153 99 -194 45 -28 55 -30 134 -28
47 1 97 3 110 5 23 3 26 -2 37 -55 14 -69 11 -72 -94 -87 -133 -19 -271 16
-353 88 -74 65 -116 186 -105 303 20 217 165 347 388 348 42 1 100 -4 128 -10z
m528 -4 c29 -9 52 -20 52 -26 0 -19 -23 -104 -30 -112 -4 -4 -35 0 -69 9 -79
22 -145 12 -174 -28 -35 -47 -14 -70 115 -132 155 -73 188 -112 188 -219 -1
-141 -104 -218 -290 -220 -98 0 -200 25 -200 49 0 23 22 108 30 117 4 5 25 1
46 -8 22 -9 71 -19 109 -21 80 -6 113 6 133 49 23 48 -3 78 -110 125 -106 46
-164 90 -184 138 -27 65 -11 167 34 217 18 20 81 55 122 68 44 13 175 10 228
-6z m570 0 c35 -11 52 -21 52 -32 0 -20 -21 -96 -30 -106 -4 -4 -35 0 -69 9
-78 22 -145 12 -173 -27 -15 -20 -17 -30 -9 -52 9 -22 33 -38 118 -78 157 -73
195 -116 195 -219 0 -144 -109 -225 -302 -223 -81 1 -190 27 -190 46 0 16 28
118 33 124 3 2 22 -3 43 -12 22 -9 71 -19 109 -21 80 -6 113 6 133 49 23 48
-1 74 -129 136 -140 69 -171 102 -177 191 -8 103 45 176 155 216 51 18 178 17
241 -1z"/>
<path d="M2475 3193 c32 -75 34 -95 35 -315 l0 -228 35 0 35 0 0 -84 0 -85
-32 -3 -33 -3 -5 -245 c-4 -207 -8 -250 -22 -279 -10 -19 -18 -36 -18 -38 0
-9 2458 -2 2491 7 19 6 46 22 60 36 24 25 24 27 27 267 1 133 4 252 7 265 4
14 17 27 35 34 25 8 30 15 30 44 0 27 -4 34 -19 34 -46 0 -51 29 -51 280 0
218 -2 237 -20 268 -40 66 35 62 -1326 62 -1173 0 -1236 -1 -1229 -17z m1866
-303 c35 -19 15 -90 -26 -90 -18 0 -45 28 -45 46 0 13 34 54 46 54 3 0 14 -5
25 -10z m-245 -67 c-3 -10 -8 -35 -12 -55 l-6 -38 49 0 c49 0 50 0 45 -30 -4
-29 -7 -30 -53 -30 -26 0 -50 -3 -53 -8 -2 -4 -15 -69 -27 -144 -25 -149 -22
-168 28 -168 21 0 24 -4 21 -27 -3 -25 -7 -28 -45 -31 -35 -3 -48 2 -68 22
-32 32 -32 79 -1 239 l23 117 -29 0 c-26 0 -29 3 -26 28 2 22 8 28 35 30 28 3
32 7 40 50 6 37 13 47 33 53 42 12 52 10 46 -8z m-978 -119 c12 -14 22 -32 22
-41 0 -10 12 -4 39 20 80 72 175 68 207 -9 17 -40 17 -40 -19 -246 l-22 -128
-32 0 c-40 0 -40 0 -13 140 36 186 28 233 -40 233 -36 0 -81 -38 -105 -90 -9
-19 -27 -90 -39 -156 l-22 -122 -36 -3 -35 -3 23 123 c40 205 33 251 -36 251
-36 0 -81 -38 -105 -90 -10 -19 -26 -81 -36 -137 -11 -55 -22 -111 -25 -123
-3 -19 -11 -23 -40 -23 -25 0 -35 4 -31 13 2 6 19 98 37 202 18 105 34 196 36
203 2 6 17 12 34 12 30 0 30 -1 24 -40 l-7 -40 37 35 c63 59 140 67 184 19z
m738 18 c8 -5 4 -41 -12 -122 -12 -63 -26 -157 -30 -207 l-7 -93 -34 0 -35 0
7 53 7 52 -38 -44 c-137 -158 -303 -26 -225 179 37 98 101 160 192 184 52 15
148 13 175 -2z m824 8 c31 -1 41 -15 30 -44 -5 -15 -15 -24 -20 -21 -20 12
-97 7 -126 -8 -66 -35 -104 -104 -104 -191 0 -75 29 -110 91 -111 24 0 59 4
77 8 31 8 32 7 32 -21 0 -28 -4 -31 -51 -42 -90 -22 -154 -2 -203 64 -30 39
-29 143 2 211 25 55 72 109 114 131 37 19 98 33 123 28 11 -2 27 -4 35 -4z
m-350 -6 c0 -8 -68 -371 -75 -401 -4 -19 -12 -23 -41 -23 -32 0 -36 2 -31 23
3 12 17 85 32 162 49 269 42 245 81 245 19 0 34 -3 34 -6z"/>
<path d="M3675 2661 c-56 -25 -101 -81 -121 -147 -19 -67 -13 -122 17 -146 32
-27 65 -22 108 17 47 42 74 104 93 207 13 66 13 78 0 83 -25 9 -56 5 -97 -14z"/>
</g>
</svg>
