<?xml version="1.0" standalone="no"?>
<!DOCTYPE svg PUBLIC "-//W3C//DTD SVG 20010904//EN"
 "http://www.w3.org/TR/2001/REC-SVG-20010904/DTD/svg10.dtd">
<svg version="1.0" xmlns="http://www.w3.org/2000/svg"
 width="512.000000pt" height="512.000000pt" viewBox="0 0 512.000000 512.000000"
 preserveAspectRatio="xMidYMid meet">

<g transform="translate(0.000000,512.000000) scale(0.100000,-0.100000)"
fill="#000000" stroke="none">
<path d="M4556 2835 c-108 -38 -147 -154 -79 -235 14 -17 62 -49 107 -72 99
-49 116 -64 116 -98 0 -63 -88 -81 -170 -34 l-44 25 -28 -33 c-15 -18 -26 -37
-24 -43 1 -5 29 -23 61 -40 133 -68 279 -22 304 96 18 86 -23 143 -145 199
-85 40 -115 68 -107 101 13 50 94 64 163 29 22 -11 41 -20 43 -20 2 0 12 18
22 40 18 39 18 41 -1 55 -25 20 -110 45 -148 45 -17 -1 -48 -7 -70 -15z"/>
<path d="M196 2832 c-3 -5 -46 -124 -95 -263 -49 -140 -92 -262 -96 -272 -7
-16 -2 -18 46 -15 l54 3 24 68 23 67 99 0 98 0 22 -70 23 -70 52 0 53 0 -50
143 c-28 78 -72 203 -98 277 l-47 135 -51 3 c-28 2 -54 -1 -57 -6z m90 -214
c19 -57 34 -104 34 -105 0 -2 -32 -3 -71 -3 -52 0 -69 3 -66 13 3 6 18 56 33
109 16 53 31 95 33 92 2 -2 19 -50 37 -106z"/>
<path d="M554 2823 c3 -10 30 -119 61 -243 31 -124 60 -242 66 -262 l10 -38
58 0 59 0 37 148 c21 81 43 171 49 200 l11 54 51 -199 50 -198 57 -3 c41 -2
59 1 62 10 3 8 36 134 74 281 l69 267 -52 0 -52 0 -47 -197 c-26 -109 -47
-207 -47 -217 0 -42 -13 0 -64 200 l-52 209 -46 3 c-42 3 -46 1 -51 -25 -4
-15 -29 -113 -56 -217 l-49 -189 -22 99 c-12 54 -34 151 -49 214 l-27 115 -53
3 c-47 3 -52 1 -47 -15z"/>
<path d="M1490 2834 c0 -3 -22 -91 -50 -196 -27 -105 -50 -199 -50 -211 0 -43
-13 -4 -46 144 -19 85 -37 155 -39 157 -4 5 -45 -176 -45 -201 0 -12 13 -71
28 -132 l28 -110 60 -3 59 -3 50 198 50 198 46 -182 c26 -100 49 -189 53 -198
4 -13 18 -15 63 -13 l57 3 67 260 c37 143 68 268 68 278 1 14 -8 17 -48 17
l-49 0 -35 -147 c-19 -82 -41 -176 -48 -210 -7 -35 -15 -63 -19 -63 -3 0 -25
80 -49 178 -24 97 -48 192 -53 210 -8 30 -12 32 -53 32 -25 0 -45 -3 -45 -6z"/>
<path d="M2112 2808 c-5 -18 -29 -113 -53 -210 -24 -98 -46 -178 -49 -178 -3
0 -20 70 -39 155 -19 86 -36 153 -39 151 -2 -3 -14 -47 -26 -98 l-22 -93 31
-125 31 -125 60 0 59 0 50 195 50 195 49 -197 49 -198 58 0 c56 0 58 1 68 33
16 51 131 504 131 516 0 7 -20 11 -50 11 -43 0 -50 -3 -55 -22 -3 -13 -23 -99
-45 -193 -22 -93 -43 -181 -46 -195 -4 -16 -23 44 -60 190 -30 118 -54 216
-54 217 0 2 -20 3 -45 3 -41 0 -45 -2 -53 -32z"/>
<path d="M2690 2573 c-51 -148 -95 -274 -98 -281 -3 -10 8 -12 48 -10 l53 3
22 65 22 65 99 3 100 3 23 -71 22 -70 50 0 c27 0 49 4 49 9 0 5 -43 129 -95
277 -52 147 -95 269 -95 271 0 2 -24 3 -54 3 l-53 0 -93 -267z m152 -61 c-36
-2 -66 -1 -68 1 -3 2 10 54 28 114 l33 110 35 -111 36 -111 -64 -3z"/>
<path d="M3235 2828 c-3 -7 -4 -132 -3 -278 l3 -265 53 -3 52 -3 0 105 0 106
48 0 47 0 55 -105 54 -105 53 0 c29 0 53 3 53 8 0 4 -27 56 -60 115 -33 59
-60 110 -60 113 0 2 15 18 34 34 78 69 65 210 -26 265 -28 17 -55 21 -165 23
-105 3 -134 1 -138 -10z m238 -89 c31 -17 37 -28 37 -73 0 -63 -29 -86 -107
-86 l-63 0 0 85 0 85 56 0 c30 0 65 -5 77 -11z"/>
<path d="M3830 2561 l0 -281 108 0 c211 0 301 46 348 177 22 63 18 170 -10
228 -54 116 -117 147 -308 153 l-138 5 0 -282z m263 175 c108 -46 141 -200 66
-304 -29 -40 -86 -62 -161 -62 l-68 0 0 190 0 190 65 0 c36 0 80 -6 98 -14z"/>
<path d="M5026 2649 c3 -5 13 -9 23 -9 29 0 56 -38 56 -80 0 -42 -27 -80 -56
-80 -10 0 -20 -4 -23 -9 -12 -19 44 3 65 26 47 49 19 143 -46 156 -14 2 -22 0
-19 -4z"/>
<path d="M4959 2624 c-16 -18 -24 -37 -24 -64 0 -42 35 -90 64 -90 10 0 6 5
-9 13 -64 32 -61 131 5 157 14 6 15 9 4 9 -8 1 -26 -11 -40 -25z"/>
<path d="M4991 2558 c1 -29 4 -43 6 -30 2 12 10 22 17 22 8 0 21 -10 30 -22
l17 -23 -11 23 c-9 17 -8 27 0 38 19 22 4 44 -30 44 -30 0 -30 0 -29 -52z m54
22 c0 -8 -10 -16 -22 -18 -18 -3 -23 2 -23 18 0 16 5 21 23 18 12 -2 22 -10
22 -18z"/>
</g>
</svg>
