<?xml version="1.0" standalone="no"?>
<!DOCTYPE svg PUBLIC "-//W3C//DTD SVG 20010904//EN"
 "http://www.w3.org/TR/2001/REC-SVG-20010904/DTD/svg10.dtd">
<svg version="1.0" xmlns="http://www.w3.org/2000/svg"
 width="600.000000pt" height="600.000000pt" viewBox="0 0 600.000000 600.000000"
 preserveAspectRatio="xMidYMid meet">

<g transform="translate(0.000000,600.000000) scale(0.100000,-0.100000)"
fill="#000000" stroke="none">
<path d="M3890 3470 c-19 -19 -20 -33 -20 -468 0 -422 1 -450 18 -465 17 -15
64 -17 465 -17 434 0 448 1 467 20 19 19 20 33 20 463 l0 444 -23 21 c-23 22
-25 22 -465 22 -429 0 -443 -1 -462 -20z m251 -139 c36 -36 37 -70 3 -110 -19
-23 -34 -31 -59 -31 -79 0 -116 90 -60 145 34 35 78 33 116 -4z m487 -218 c60
-45 67 -71 70 -270 l4 -183 -76 0 -75 0 -3 156 c-3 150 -4 157 -27 175 -31 26
-64 24 -98 -5 l-28 -24 -3 -151 -4 -151 -74 0 -74 0 0 235 0 236 72 -3 c67 -3
73 -5 78 -27 5 -22 6 -23 20 -6 40 48 163 59 218 18z m-470 -220 l2 -233 -75
0 -75 0 0 235 0 236 73 -3 72 -3 3 -232z"/>
<path d="M1490 3328 c-40 -43 -18 -120 39 -133 77 -17 129 67 80 129 -27 34
-88 37 -119 4z"/>
<path d="M980 3000 l0 -340 215 0 215 0 0 70 0 70 -140 0 -140 0 0 270 0 270
-75 0 -75 0 0 -340z"/>
<path d="M2230 3000 l0 -340 70 0 69 0 3 116 3 117 78 -117 77 -116 85 0 c47
0 85 2 85 5 0 3 -38 57 -85 120 -47 63 -85 120 -85 126 0 6 39 54 87 107 l88
97 -85 3 -85 3 -45 -53 c-25 -29 -62 -71 -82 -93 l-37 -40 -1 203 0 202 -70 0
-70 0 0 -340z"/>
<path d="M3580 3210 c0 -71 -3 -130 -7 -130 -4 0 -16 9 -28 20 -32 30 -119 46
-173 31 -88 -24 -151 -110 -160 -217 -11 -143 69 -247 202 -261 44 -5 63 -1
101 17 26 12 49 29 52 36 9 25 23 15 23 -16 l0 -30 65 0 65 0 0 340 0 340 -70
0 -70 0 0 -130z m-42 -217 c58 -36 64 -132 13 -184 -83 -82 -214 -14 -198 103
12 88 107 130 185 81z"/>
<path d="M2877 3129 c-53 -12 -87 -32 -124 -71 -69 -71 -84 -183 -37 -276 30
-61 74 -98 140 -118 92 -27 186 -11 253 45 l34 28 -49 36 c-49 36 -49 36 -70
16 -49 -46 -135 -42 -174 8 -40 51 -34 53 145 53 l165 0 0 51 c0 77 -20 129
-65 175 -57 57 -128 74 -218 53z m112 -115 c19 -16 31 -35 31 -50 0 -24 -1
-24 -95 -24 -80 0 -95 3 -95 16 0 42 50 83 102 84 14 0 40 -12 57 -26z"/>
<path d="M1893 3111 c-17 -11 -36 -28 -42 -38 -9 -15 -10 -13 -11 15 l0 32
-70 0 -70 0 0 -230 0 -230 69 0 69 0 4 144 c3 128 6 148 24 173 31 41 93 45
123 7 19 -24 21 -39 21 -175 l0 -149 71 0 71 0 -4 183 c-3 203 -11 231 -71
267 -44 27 -140 27 -184 1z"/>
<path d="M1480 2890 l0 -230 70 0 70 0 0 230 0 230 -70 0 -70 0 0 -230z"/>
<path d="M4948 2633 c7 -3 16 -2 19 1 4 3 -2 6 -13 5 -11 0 -14 -3 -6 -6z"/>
<path d="M4932 2573 c1 -37 1 -37 5 -5 3 20 10 32 20 32 10 0 13 -6 8 -17 -5
-14 -3 -15 6 -6 15 15 3 33 -22 33 -16 0 -19 -6 -17 -37z"/>
<path d="M5012 2575 c0 -16 2 -22 5 -12 2 9 2 23 0 30 -3 6 -5 -1 -5 -18z"/>
</g>
</svg>
