<?xml version="1.0" standalone="no"?>
<!DOCTYPE svg PUBLIC "-//W3C//DTD SVG 20010904//EN"
 "http://www.w3.org/TR/2001/REC-SVG-20010904/DTD/svg10.dtd">
<svg version="1.0" xmlns="http://www.w3.org/2000/svg"
 width="2048.000000pt" height="1536.000000pt" viewBox="0 0 2048.000000 1536.000000"
 preserveAspectRatio="xMidYMid meet">

<g transform="translate(0.000000,1536.000000) scale(0.100000,-0.100000)"
fill="#000000" stroke="none">
<path d="M5700 8883 c-79 -12 -218 -48 -286 -74 -363 -139 -646 -455 -740
-825 -52 -207 -52 -402 1 -608 22 -90 80 -241 94 -250 4 -3 84 49 177 115
l170 119 -33 68 c-76 155 -132 373 -140 548 l-6 110 113 63 c231 129 462 286
670 452 60 48 114 90 119 94 6 3 49 -25 95 -64 101 -85 313 -245 378 -286 27
-17 48 -33 48 -36 0 -3 -212 -154 -470 -335 l-470 -329 182 -3 183 -2 70 48
c38 26 284 198 545 382 261 183 622 436 803 563 180 126 327 235 327 243 0 12
-136 14 -902 13 -497 -1 -914 -3 -928 -6z"/>
<path d="M14927 8600 c-72 -13 -151 -55 -196 -107 -56 -62 -81 -136 -88 -255
l-6 -98 -109 0 -108 0 0 -95 0 -95 110 0 110 0 2 -462 3 -463 108 -3 107 -3 0
468 0 468 167 0 168 0 3 93 3 92 -172 0 -171 0 4 89 c3 96 15 123 72 165 23
18 45 21 147 24 l119 4 0 94 0 94 -112 -1 c-62 -1 -135 -5 -161 -9z"/>
<path d="M8263 8579 c-176 -29 -330 -144 -383 -286 -25 -68 -28 -193 -6 -265
54 -179 164 -250 555 -358 181 -51 254 -89 286 -150 21 -41 19 -127 -4 -170
-42 -80 -164 -126 -311 -118 -108 7 -174 34 -233 97 -44 47 -87 139 -87 187
l0 25 -137 -3 -138 -3 4 -44 c13 -185 135 -365 301 -443 110 -52 166 -63 325
-63 118 0 151 4 215 24 170 53 267 126 327 249 37 74 38 79 38 186 0 136 -22
199 -96 280 -81 89 -200 141 -477 211 -201 50 -281 96 -302 175 -35 130 80
230 265 230 141 0 234 -49 282 -150 l28 -59 136 0 136 -1 -8 43 c-21 112 -65
193 -147 268 -106 99 -252 150 -421 148 -53 -1 -119 -5 -148 -10z"/>
<path d="M12380 8574 c-156 -33 -294 -139 -340 -261 -30 -79 -31 -205 -2 -282
61 -158 151 -216 498 -316 87 -25 178 -54 201 -65 104 -46 153 -111 153 -202
-1 -147 -124 -238 -324 -238 -136 0 -219 32 -289 110 -46 50 -64 86 -81 157
l-13 58 -109 0 -109 0 4 -44 c4 -59 35 -157 68 -217 38 -70 139 -165 212 -202
100 -50 191 -65 350 -59 111 4 149 9 209 30 235 82 356 275 312 499 -15 78
-40 127 -92 184 -73 79 -173 123 -441 194 -236 63 -312 108 -338 203 -26 98
15 178 118 229 64 31 73 33 173 33 112 -1 148 -11 222 -62 45 -31 95 -105 106
-158 l8 -39 107 0 107 -1 0 32 c0 43 -32 143 -63 195 -37 64 -128 145 -200
179 -122 57 -303 74 -447 43z"/>
<path d="M6839 8176 l-76 -55 -7 -111 c-13 -224 -70 -431 -173 -632 -77 -152
-161 -266 -288 -393 -117 -116 -214 -191 -359 -274 l-88 -51 -87 49 c-193 111
-366 259 -498 429 l-65 83 -27 -17 c-153 -100 -1007 -709 -1009 -720 -3 -13
118 -14 940 -12 l943 3 98 27 c384 105 686 369 827 722 98 244 115 507 50 761
-23 90 -81 237 -95 242 -6 2 -45 -21 -86 -51z"/>
<path d="M9896 8164 c-139 -34 -267 -137 -331 -267 -51 -106 -68 -183 -68
-317 0 -134 17 -211 68 -317 45 -91 130 -179 214 -221 176 -88 419 -80 559 18
l44 31 -4 -95 c-3 -86 -6 -98 -33 -137 -57 -81 -69 -84 -408 -87 l-298 -3 3
-110 3 -110 327 1 c297 0 333 2 392 20 121 38 214 128 262 255 17 47 19 92 22
693 l3 642 -136 0 -135 0 0 -51 0 -51 -29 25 c-39 32 -108 65 -174 83 -66 17
-204 17 -281 -2z m329 -251 c118 -62 186 -208 172 -371 -8 -101 -41 -177 -101
-237 -61 -61 -121 -85 -216 -85 -95 0 -155 24 -216 85 -136 135 -138 408 -5
548 66 70 115 87 236 84 68 -3 100 -8 130 -24z"/>
<path d="M11278 8161 c-66 -21 -151 -73 -173 -104 -14 -20 -15 -17 -15 41 l0
62 -135 0 -135 0 0 -580 0 -580 135 0 134 0 3 368 c3 363 3 367 27 412 49 93
123 148 215 157 103 11 196 -42 240 -137 20 -43 21 -64 24 -422 l3 -378 130 0
129 0 0 403 c0 342 -2 412 -16 458 -40 134 -117 228 -232 282 -60 28 -78 32
-172 34 -82 2 -118 -1 -162 -16z"/>
<path d="M9125 7580 l0 -580 133 0 132 0 0 580 0 580 -132 0 -133 0 0 -580z"/>
<path d="M13650 8149 c-238 -35 -400 -216 -431 -483 -23 -203 36 -398 156
-519 96 -96 206 -137 367 -138 145 0 258 44 334 130 l23 26 1 -72 0 -73 105 0
105 0 0 560 0 560 -105 0 -105 0 0 -71 0 -72 -44 41 c-57 53 -132 90 -215 108
-72 15 -108 16 -191 3z m261 -206 c98 -44 167 -130 193 -243 58 -244 -53 -459
-259 -500 -166 -34 -325 52 -386 208 -33 83 -33 262 -1 344 41 101 131 183
229 208 59 15 172 6 224 -17z"/>
<path d="M15610 8149 c-199 -29 -365 -189 -415 -400 -19 -82 -19 -236 0 -318
46 -193 202 -357 386 -406 73 -20 245 -19 323 1 136 35 255 128 307 238 16 34
31 75 35 91 l6 30 -106 0 -105 0 -16 -42 c-23 -60 -91 -118 -161 -139 -84 -24
-213 -16 -279 18 -98 51 -176 162 -191 271 l-7 47 427 0 426 0 0 94 c0 243
-143 445 -352 500 -77 20 -200 27 -278 15z m258 -201 c75 -35 123 -94 146
-179 9 -30 16 -58 16 -62 0 -4 -144 -7 -319 -7 l-319 0 7 33 c13 53 46 121 80
159 84 96 255 120 389 56z"/>
<path d="M16330 7133 l0 -128 122 2 123 2 3 125 3 126 -126 0 -125 0 0 -127z"/>
</g>
</svg>
