<?xml version="1.0" standalone="no"?>
<!DOCTYPE svg PUBLIC "-//W3C//DTD SVG 20010904//EN"
 "http://www.w3.org/TR/2001/REC-SVG-20010904/DTD/svg10.dtd">
<svg version="1.0" xmlns="http://www.w3.org/2000/svg"
 width="1600.000000pt" height="602.000000pt" viewBox="0 0 1600.000000 602.000000"
 preserveAspectRatio="xMidYMid meet">

<g transform="translate(0.000000,602.000000) scale(0.100000,-0.100000)"
fill="#000000" stroke="none">
<path d="M1030 5887 c-118 -68 -396 -228 -618 -356 l-402 -233 0 -353 0 -354
188 108 c103 59 380 220 617 356 l429 248 36 -19 c19 -11 127 -74 240 -139
522 -302 959 -552 962 -550 2 2 2 161 0 353 l-2 350 -106 62 c-58 33 -119 69
-137 79 -18 10 -247 142 -510 295 -262 152 -478 276 -480 276 -2 0 -99 -55
-217 -123z"/>
<path d="M5027 5013 c-4 -3 -7 -291 -7 -640 l0 -633 -77 56 c-142 102 -320
176 -533 221 -117 24 -389 24 -514 -1 -269 -53 -495 -173 -687 -365 -285 -286
-425 -660 -406 -1091 11 -235 53 -413 141 -595 73 -148 159 -266 280 -383 196
-187 391 -290 666 -349 119 -25 419 -25 540 1 228 48 389 122 563 256 l27 22
0 -121 0 -121 325 0 325 0 -2 1873 -3 1872 -316 3 c-173 1 -318 -1 -322 -5z
m-549 -1592 c205 -60 407 -224 499 -405 118 -232 122 -540 10 -762 -114 -226
-323 -389 -562 -439 -93 -19 -260 -19 -359 -1 -241 47 -461 226 -558 457 -49
117 -62 190 -62 354 0 183 14 249 86 395 45 93 61 115 147 200 106 106 197
161 326 198 103 30 108 31 260 27 106 -2 158 -8 213 -24z"/>
<path d="M7185 4044 c-338 -48 -594 -171 -810 -388 -198 -200 -308 -415 -372
-726 -14 -66 -18 -136 -18 -310 0 -195 3 -240 23 -338 87 -430 339 -756 724
-936 339 -159 816 -184 1188 -64 106 34 282 121 381 189 111 76 299 253 284
267 -10 11 -438 260 -460 268 -7 3 -45 -20 -86 -51 -302 -228 -724 -266 -1054
-96 -96 49 -228 181 -278 276 -34 66 -67 171 -82 258 l-6 37 1050 0 c817 0
1051 3 1057 12 5 7 8 105 8 218 0 173 -3 223 -22 318 -57 283 -174 504 -372
702 -150 151 -295 242 -480 304 -148 49 -213 58 -435 61 -115 2 -223 1 -240
-1z m392 -560 c227 -51 443 -248 487 -444 9 -38 16 -76 16 -84 0 -14 -76 -16
-721 -16 l-721 0 6 28 c42 176 131 299 296 409 170 114 421 156 637 107z"/>
<path d="M10210 4010 c-47 -10 -105 -25 -130 -34 -115 -42 -277 -150 -349
-231 -17 -19 -33 -35 -36 -35 -3 0 -5 61 -5 135 l0 135 -320 0 -320 0 0 -1355
0 -1355 320 0 319 0 3 853 c4 837 4 853 25 919 91 287 318 448 576 409 154
-24 264 -106 335 -252 72 -145 72 -147 72 -1095 l0 -834 320 0 319 0 3 853 c4
832 4 854 24 917 78 242 227 381 441 411 209 29 395 -65 483 -246 67 -137 64
-90 68 -1058 l3 -877 325 0 325 0 -4 938 c-4 895 -5 942 -24 1037 -70 340
-225 565 -477 689 -133 66 -222 87 -401 93 -369 13 -662 -94 -896 -328 -33
-33 -61 -59 -63 -59 -2 0 -16 20 -30 45 -93 158 -285 285 -498 329 -106 22
-298 20 -408 -4z"/>
<path d="M0 3148 c0 -863 5 -989 41 -1138 110 -443 484 -742 1001 -799 181
-20 385 -11 553 25 432 92 749 378 848 764 44 168 47 251 47 1140 l0 840 -325
0 -324 0 -3 -847 c-3 -773 -5 -853 -21 -908 -66 -222 -228 -373 -449 -419
-142 -29 -267 -14 -398 50 -98 49 -204 152 -248 244 -69 142 -66 96 -70 1033
l-3 847 -325 0 -324 0 0 -832z"/>
<path d="M13094 3923 c21 -52 163 -403 651 -1608 89 -220 223 -552 299 -737
75 -185 136 -342 136 -347 0 -18 -146 -347 -184 -415 -51 -91 -126 -170 -194
-203 -54 -26 -65 -28 -224 -31 l-168 -4 0 -289 0 -289 173 0 c100 0 213 6 269
15 282 42 489 207 675 538 66 117 105 205 351 787 99 234 306 722 460 1085
154 363 364 857 466 1099 102 241 186 443 186 447 0 5 -147 9 -327 9 l-328 0
-77 -188 c-42 -103 -216 -527 -387 -942 -385 -940 -346 -851 -359 -820 -5 14
-164 410 -352 880 -187 470 -360 902 -384 960 l-43 105 -331 3 -331 2 23 -57z"/>
</g>
</svg>
