<?xml version="1.0" encoding="UTF-8" standalone="no"?>
<svg xmlns:inkscape="http://www.inkscape.org/namespaces/inkscape" xmlns:sodipodi="http://sodipodi.sourceforge.net/DTD/sodipodi-0.dtd" xmlns="http://www.w3.org/2000/svg" xmlns:svg="http://www.w3.org/2000/svg" viewBox="0 0 255 255" version="1.1" id="svg14" sodipodi:docname="30327f0941b03797772a9419c15b1d82.svg" width="255" height="255"><metadata><meta name="Producer" content="Online-Convert"/></metadata>
  <sodipodi:namedview id="namedview16" pagecolor="#ffffff" bordercolor="#666666" borderopacity="1.0" inkscape:pageshadow="2" inkscape:pageopacity="0.0" inkscape:pagecheckerboard="0"/>
  <defs id="defs4">
    <style id="style2">.cls-1{fill:#fff;}.cls-2{fill:#ffb500;}.cls-3{fill:#351c15;}</style>
  </defs>
  <g id="Layer_2" data-name="Layer 2">
    <g id="Layer">
      <rect class="cls-1" width="255" height="255" id="rect6" x="0" y="0"/>
      <path class="cls-2" d="m 175.66,203.86 v 11.91 h 2.16 v -5 h 0.31 l 3.26,5 H 184 l -3.61,-5.25 a 3.17,3.17 0 0 0 2.66,-3.17 c 0,-1.69 -1.06,-3.49 -4,-3.49 z m 3.15,1.73 c 1.83,0 2.08,0.89 2.08,1.68 0,1.12 -0.48,1.87 -2.8,1.87 h -0.27 v -3.55 z m 8.45,4.25 a 8.11,8.11 0 1 1 -8.12,-8.08 8.09,8.09 0 0 1 8.12,8.08 z M 179.14,200 A 9.8,9.8 0 1 0 189,209.82 9.86,9.86 0 0 0 179.14,200 Z M 126,210.82 c -4.54,-2 -41.58,-18.08 -53.56,-27.85 C 59.54,172.44 52.72,157.33 52.72,139.26 V 53.38 c 20.36,-10.74 45,-16.19 73.28,-16.19 28.28,0 52.92,5.45 73.28,16.19 v 85.88 c 0,18.07 -6.81,33.18 -19.71,43.71 C 167.78,192.59 130.3,209 126,210.82 Z" id="path8"/>
      <path class="cls-3" d="m 59.45,139.26 c 0,16 6,29.36 17.24,38.52 10,8.1 40.66,21.92 49.31,25.72 8.54,-3.75 39.15,-17.4 49.3,-25.72 11.37,-9.32 17.25,-22.36 17.25,-38.52 V 55.19 C 149.88,51.24 99.4,53.66 59.46,90.19 v 49.12 z M 66,134.15 V 94.26 h 12.71 v 40.46 c 0,3.6 0.87,8.92 6.72,8.92 a 10.81,10.81 0 0 0 6,-1.54 V 94.26 h 12.73 v 55.06 c -4.87,3.29 -11.41,5.09 -19.22,5.09 C 72.36,154.41 66,147.6 66,134.15 Z m 57.52,46 H 110.73 V 97.49 c 4.62,-3 10.23,-4.52 17.18,-4.52 15.22,0 23.58,11.5 23.58,30 0,18.5 -8.12,31.23 -22.27,31.23 a 20.42,20.42 0 0 1 -5.74,-0.72 v 26.72 z m 0,-76.09 a 11.15,11.15 0 0 1 4.52,-0.92 c 7.39,0 10.46,5.88 10.46,20.1 0,13.88 -3.51,20.58 -10.84,20.58 a 12.09,12.09 0 0 1 -4.14,-0.77 z m 30.9,5.4 c 0,-10.25 8.72,-16.3 17.11,-16.54 a 22,22 0 0 1 14,4.12 v 11 a 17.19,17.19 0 0 0 -11.43,-5.22 c -3.61,0 -7.37,1.56 -7.49,6.07 -0.12,4.51 3.63,6.44 8.38,9.22 10.66,6.23 12.71,11.83 12.47,19.24 -0.24,8.11 -5.86,17 -18.46,17 a 28,28 0 0 1 -14,-3.93 v -11.63 c 3.26,2.88 8.12,5.13 12.19,5.16 4.68,0 7.76,-2.65 7.65,-7.07 -0.1,-4 -2.36,-6.15 -8,-9.43 -10.55,-6.14 -12.44,-11.19 -12.46,-17.94 z" id="path10"/>
    </g>
  </g>
</svg>
