<?xml version="1.0" standalone="no"?>
<!DOCTYPE svg PUBLIC "-//W3C//DTD SVG 20010904//EN"
 "http://www.w3.org/TR/2001/REC-SVG-20010904/DTD/svg10.dtd">
<svg version="1.0" xmlns="http://www.w3.org/2000/svg"
 width="1600.000000pt" height="900.000000pt" viewBox="0 0 1600.000000 900.000000"
 preserveAspectRatio="xMidYMid meet">

<g transform="translate(0.000000,900.000000) scale(0.100000,-0.100000)"
fill="#000000" stroke="none">
<path d="M6540 8953 c-17 -27 -75 -138 -129 -248 -140 -284 -217 -523 -272
-846 -30 -180 -33 -606 -5 -764 89 -502 274 -887 575 -1199 277 -285 633 -491
995 -576 342 -81 745 -63 1064 47 222 76 411 178 583 317 323 259 521 548 647
946 120 379 104 865 -42 1262 -85 230 -200 405 -395 599 -202 201 -386 317
-687 435 -195 76 -160 74 -986 74 l-736 0 -126 -121 c-136 -130 -232 -253
-337 -429 -93 -157 -268 -520 -357 -740 -104 -259 -101 -255 -102 -145 0 233
63 540 169 825 43 115 158 351 237 486 35 61 64 114 64 118 0 3 -29 6 -65 6
l-65 0 -30 -47z"/>
<path d="M9275 3039 c-156 -18 -287 -81 -383 -184 -71 -75 -126 -181 -141
-270 -18 -109 -24 -578 -16 -1386 l7 -799 232 0 c127 0 237 4 244 8 10 7 14
154 19 699 l6 690 90 7 c50 3 152 6 229 6 l138 0 0 220 0 220 -236 0 -236 0 7
98 c8 121 18 155 56 186 49 42 97 49 279 43 91 -3 172 -7 180 -9 21 -4 23 27
15 248 l-7 190 -67 12 c-63 11 -131 18 -278 26 -38 2 -99 0 -138 -5z"/>
<path d="M5826 2992 c-2 -4 -6 -175 -7 -380 -2 -205 -6 -375 -11 -378 -4 -3
-36 4 -72 15 -161 50 -433 53 -589 7 -305 -91 -503 -284 -610 -597 -51 -147
-59 -445 -17 -608 102 -393 364 -612 810 -677 191 -28 568 -9 864 42 49 8 97
19 106 24 16 9 18 78 25 863 8 935 0 1677 -19 1689 -15 10 -473 10 -480 0z
m-131 -1152 c39 -12 82 -29 98 -36 l27 -15 0 -493 0 -493 -31 -7 c-51 -10
-340 -6 -389 5 -112 26 -218 101 -286 203 -62 95 -77 146 -82 294 -5 158 6
229 53 327 55 116 133 192 236 229 64 24 278 16 374 -14z"/>
<path d="M14715 2285 c-148 -30 -167 -36 -276 -91 -160 -83 -276 -204 -362
-379 -80 -164 -102 -287 -94 -544 5 -195 19 -262 83 -399 113 -246 294 -389
591 -469 93 -25 111 -27 338 -27 219 -1 248 1 325 22 125 33 239 72 291 98
l46 23 7 123 c6 116 3 194 -7 204 -2 2 -22 -2 -45 -10 -22 -8 -53 -17 -69 -19
-15 -3 -75 -15 -133 -27 -146 -30 -495 -40 -587 -17 -177 46 -287 153 -325
316 -6 28 -8 54 -4 58 4 5 283 10 619 13 l612 5 3 155 c4 165 -6 246 -43 370
-90 299 -299 509 -579 580 -106 27 -298 34 -391 15z m347 -449 c105 -53 187
-159 203 -263 l7 -43 -387 0 -387 0 7 47 c9 63 45 139 89 190 34 39 108 84
150 90 11 2 22 6 25 9 3 3 58 4 121 2 102 -3 121 -7 172 -32z"/>
<path d="M3095 2276 c-103 -20 -220 -61 -305 -109 -86 -48 -213 -165 -275
-252 -169 -238 -223 -564 -145 -869 41 -163 136 -322 258 -437 89 -84 172
-136 285 -179 135 -53 205 -64 387 -64 146 1 177 4 265 27 355 95 595 342 673
696 21 95 23 358 3 446 -50 231 -112 348 -261 495 -129 127 -300 214 -490 248
-78 14 -313 13 -395 -2z m368 -438 c114 -53 207 -186 243 -344 22 -103 15
-314 -14 -394 -53 -149 -121 -234 -229 -286 -52 -26 -68 -28 -163 -29 -97 0
-110 2 -170 31 -164 78 -259 261 -260 502 0 262 107 461 287 533 75 30 228 23
306 -13z"/>
<path d="M7425 2284 c-11 -3 -56 -14 -100 -25 -98 -24 -185 -58 -254 -98 -28
-17 -54 -31 -58 -31 -22 0 -192 -155 -251 -230 -56 -71 -136 -233 -164 -335
-20 -71 -22 -103 -22 -285 0 -180 3 -215 22 -285 84 -305 303 -530 591 -607
107 -28 350 -31 435 -5 85 27 163 68 226 121 62 51 72 48 85 -22 3 -20 13 -47
21 -59 14 -23 18 -23 224 -23 l209 0 6 43 c3 23 5 417 3 876 l-3 834 -55 19
c-84 29 -232 65 -365 88 -90 17 -171 23 -325 25 -113 2 -214 2 -225 -1z m398
-444 l67 -12 0 -436 0 -436 -51 -49 c-30 -28 -83 -64 -127 -85 -74 -36 -81
-37 -187 -37 -105 0 -113 1 -174 33 -165 87 -253 255 -253 485 0 167 45 287
147 396 75 79 180 139 264 153 60 9 228 3 314 -12z"/>
<path d="M10460 2264 c-196 -52 -318 -119 -436 -239 -205 -208 -295 -482 -265
-810 17 -178 61 -310 150 -446 153 -233 396 -373 697 -401 469 -44 850 173
1000 569 53 139 66 215 66 393 0 146 -3 176 -26 265 -15 56 -50 149 -81 211
-47 96 -66 124 -142 202 -200 206 -407 283 -753 281 -90 0 -136 -6 -210 -25z
m432 -432 c160 -79 248 -259 248 -506 0 -133 -18 -222 -60 -307 -83 -168 -214
-247 -391 -237 -174 10 -316 135 -373 327 -9 29 -18 112 -22 185 -5 113 -3
142 15 211 65 250 204 368 426 362 79 -2 99 -6 157 -35z"/>
<path d="M12555 2283 c-167 -18 -587 -104 -627 -129 -4 -3 -8 -396 -8 -874 0
-782 2 -868 16 -874 9 -3 119 -6 244 -6 167 0 231 3 236 12 4 7 9 318 11 692
l4 681 32 11 c54 20 249 36 369 32 142 -6 211 -30 279 -98 61 -61 86 -112 98
-197 8 -58 21 -666 21 -1021 l0 -112 248 2 247 3 0 620 c0 699 0 695 -72 845
-39 80 -59 108 -132 180 -71 70 -104 95 -181 133 -55 27 -139 58 -200 73 -95
24 -126 27 -325 29 -121 2 -238 1 -260 -2z"/>
<path d="M260 2247 c0 -7 99 -246 355 -852 35 -82 107 -253 160 -380 177 -422
245 -580 255 -595 8 -13 50 -15 277 -15 l267 0 123 305 c68 168 150 370 182
450 32 80 78 192 101 250 23 58 48 119 55 135 7 17 40 98 73 180 33 83 92 228
131 324 39 96 71 180 71 188 0 10 -52 13 -279 13 l-279 0 -28 -72 c-15 -40
-37 -100 -50 -133 -12 -33 -32 -87 -43 -120 -24 -68 -47 -131 -121 -330 -29
-77 -62 -169 -74 -205 -47 -136 -121 -320 -128 -320 -4 0 -15 17 -24 38 -18
42 -288 752 -370 972 -30 80 -62 151 -71 158 -13 9 -89 12 -300 12 -156 0
-283 -2 -283 -3z"/>
</g>
</svg>
