<?xml version="1.0" standalone="no"?>
<!DOCTYPE svg PUBLIC "-//W3C//DTD SVG 20010904//EN" "http://www.w3.org/TR/2001/REC-SVG-20010904/DTD/svg10.dtd">
<svg xmlns="http://www.w3.org/2000/svg" version="1.0" width="400.000000pt" height="400.000000pt" viewBox="0 0 400.000000 400.000000" preserveAspectRatio="xMidYMid meet">
<metadata>
Created by potrace 1.16, written by Peter Selinger 2001-2019
<meta name="Producer" content="Online-Convert"/></metadata>
<g transform="translate(0.000000,400.000000) scale(0.100000,-0.100000)" fill="#000000" stroke="none">
<path d="M2240 2322 c0 -37 0 -37 75 -66 41 -16 73 -31 71 -35 -2 -3 -36 -17 -75 -31 l-71 -24 0 -43 0 -43 43 17 c23 9 83 33 132 53 l90 36 0 38 0 37 -125 49 c-69 28 -128 50 -132 50 -5 0 -8 -17 -8 -38z"/>
<path d="M2373 2039 c-37 -16 -43 -22 -43 -49 0 -23 -4 -30 -20 -30 -16 0 -20 -7 -20 -35 0 -28 4 -35 20 -35 19 0 20 -7 20 -99 0 -83 3 -102 20 -123 21 -27 67 -40 113 -31 23 5 27 10 27 39 0 30 -3 33 -32 36 l-33 3 -3 88 -3 87 31 0 c28 0 30 3 30 35 0 32 -2 35 -29 35 -29 0 -30 2 -33 49 l-3 48 -42 -18z"/>
<path d="M669 1954 c-32 -13 -69 -57 -69 -83 0 -6 18 -11 43 -11 32 0 45 5 55 21 19 31 73 23 83 -12 7 -26 6 -27 -54 -34 -101 -11 -137 -41 -137 -114 0 -72 85 -110 160 -73 31 15 40 16 40 6 0 -10 14 -14 46 -14 l46 0 -4 128 c-4 144 -11 163 -71 187 -46 19 -91 18 -138 -1z"/>
<path d="M1005 1947 c-23 -13 -48 -37 -57 -57 -22 -43 -24 -140 -3 -180 46 -90 185 -106 250 -29 14 17 25 41 25 55 0 21 -4 24 -38 24 -29 0 -40 -5 -47 -22 -14 -30 -37 -42 -67 -35 -52 13 -68 128 -23 172 13 14 29 25 35 25 21 0 50 -21 50 -35 0 -11 12 -15 45 -15 37 0 45 3 45 19 0 27 -39 71 -76 87 -48 20 -93 17 -139 -9z"/>
<path d="M1350 1951 c-69 -37 -97 -108 -79 -198 18 -92 111 -144 203 -113 42 14 86 62 86 96 0 21 -4 24 -40 24 -27 0 -40 -4 -40 -13 0 -20 -33 -47 -58 -47 -40 0 -62 34 -62 94 0 71 31 113 74 102 16 -4 30 -16 33 -26 4 -16 14 -20 49 -20 36 0 44 3 44 19 0 27 -39 71 -76 87 -46 19 -93 17 -134 -5z"/>
<path d="M1690 1953 c-94 -49 -118 -202 -44 -277 69 -68 209 -54 250 25 20 39 19 39 -29 39 -31 0 -45 -5 -55 -20 -27 -44 -112 -15 -112 38 0 21 4 22 105 22 l105 0 0 38 c0 46 -26 99 -62 125 -38 28 -114 33 -158 10z"/>
<path d="M2093 1951 c-26 -16 -32 -17 -37 -5 -4 9 -21 14 -51 14 l-45 0 0 -160 0 -160 50 0 50 0 0 113 c0 122 6 137 50 137 44 0 50 -15 50 -137 l0 -113 45 0 45 0 0 134 c0 125 -2 137 -23 161 -30 36 -91 43 -134 16z"/>
<path d="M3033 1955 c-18 -8 -33 -19 -33 -25 0 -5 -4 -10 -10 -10 -5 0 -10 9 -10 20 0 17 -7 20 -45 20 l-45 0 0 -160 0 -160 45 0 45 0 0 84 c0 111 9 132 60 147 39 12 40 14 40 56 0 48 -1 48 -47 28z"/>
<path d="M3194 1951 c-93 -42 -115 -200 -38 -276 59 -60 176 -56 228 6 37 44 34 59 -12 59 -25 0 -43 -7 -55 -20 -17 -20 -61 -26 -84 -12 -15 9 -34 58 -26 66 4 3 51 6 105 6 l98 0 0 40 c0 66 -23 108 -72 130 -54 24 -92 25 -144 1z"/>
<path d="M2540 1833 c0 -147 14 -186 69 -198 38 -8 86 1 102 21 15 18 29 18 29 -1 0 -11 12 -15 45 -15 l45 0 0 160 0 160 -45 0 -45 0 0 -94 c0 -124 -16 -165 -62 -166 -39 0 -48 26 -48 146 l0 114 -45 0 -45 0 0 -127z"/>
</g>
</svg>
