<?xml version="1.0" standalone="no"?>
<!DOCTYPE svg PUBLIC "-//W3C//DTD SVG 20010904//EN"
 "http://www.w3.org/TR/2001/REC-SVG-20010904/DTD/svg10.dtd">
<svg version="1.0" xmlns="http://www.w3.org/2000/svg"
 width="512.000000pt" height="512.000000pt" viewBox="0 0 512.000000 512.000000"
 preserveAspectRatio="xMidYMid meet">

<g transform="translate(0.000000,512.000000) scale(0.100000,-0.100000)"
fill="#000000" stroke="none">
<path d="M2701 3003 c0 -126 4 -300 8 -388 6 -149 9 -164 36 -218 77 -154 255
-236 422 -193 275 70 370 412 172 616 -78 80 -180 110 -376 110 l-113 0 0 150
0 150 -75 0 -75 0 1 -227z m474 -242 c102 -47 148 -158 114 -272 -50 -164
-277 -207 -387 -73 -41 49 -52 101 -52 243 l0 121 143 0 c117 0 149 -4 182
-19z"/>
<path d="M4977 2933 c-4 -3 -7 -101 -7 -217 0 -238 -7 -265 -73 -323 -47 -41
-96 -56 -172 -51 -78 5 -132 38 -172 105 l-28 48 -3 218 -3 217 -70 0 -70 0 3
-233 3 -233 33 -66 c65 -133 179 -202 332 -202 75 -1 93 3 153 31 74 35 77 34
55 -41 -15 -50 -82 -119 -129 -134 -19 -6 -60 -13 -91 -17 l-58 -6 0 -71 0
-71 73 6 c161 12 311 108 353 224 10 29 13 129 14 431 l0 392 -68 0 c-38 0
-72 -3 -75 -7z"/>
<path d="M310 2924 c-62 -12 -153 -50 -196 -83 -27 -21 -60 -60 -78 -91 l-31
-55 -3 -402 -3 -403 74 0 74 0 -1 148 -1 147 160 6 c154 5 163 7 226 37 78 38
140 100 177 180 23 49 27 70 27 152 0 87 -3 101 -32 161 -60 121 -171 197
-300 204 -37 2 -79 1 -93 -1z m188 -176 c114 -76 133 -238 41 -343 -48 -54
-96 -68 -252 -73 l-138 -4 3 159 c3 151 4 162 28 197 14 21 48 51 75 67 45 27
57 30 126 27 62 -2 83 -8 117 -30z"/>
<path d="M840 2565 l0 -365 70 0 70 0 0 365 0 365 -70 0 -70 0 0 -365z"/>
<path d="M1130 2920 c0 -5 54 -84 120 -176 66 -91 120 -170 120 -175 0 -5 -61
-90 -135 -189 -74 -99 -135 -182 -135 -185 0 -3 40 -5 88 -5 103 0 92 -8 197
143 38 53 72 97 76 97 5 0 48 -52 96 -115 l88 -115 98 0 c53 0 97 2 97 4 0 2
-65 84 -145 182 -80 97 -145 180 -145 184 0 4 61 84 135 179 74 95 135 175
135 177 0 2 -40 4 -89 4 l-90 0 -82 -107 c-45 -60 -85 -111 -89 -116 -3 -4
-44 44 -90 108 l-84 115 -83 0 c-47 0 -83 -4 -83 -10z"/>
<path d="M2113 2911 c-120 -44 -202 -140 -233 -270 -37 -158 51 -339 200 -410
54 -25 60 -26 294 -29 l238 -3 -4 228 c-4 220 -5 230 -30 285 -35 76 -107 151
-177 184 -77 37 -211 44 -288 15z m222 -145 c102 -48 126 -99 133 -283 l5
-133 -157 0 c-170 0 -189 5 -237 57 -45 48 -62 93 -62 158 1 98 43 164 133
204 60 27 123 26 185 -3z"/>
<path d="M3783 2911 c-64 -23 -98 -47 -146 -100 -165 -183 -108 -474 113 -580
54 -25 60 -26 293 -29 l239 -3 -4 223 c-4 202 -6 228 -27 280 -30 77 -106 160
-179 194 -78 37 -212 44 -289 15z m222 -145 c102 -48 126 -99 133 -283 l5
-133 -157 0 c-170 0 -189 5 -237 57 -45 47 -62 93 -62 158 0 97 43 163 133
204 60 27 123 26 185 -3z"/>
</g>
</svg>
